<?xml version="1.0" encoding="utf-8"?>
<!-- Generator: Adobe Illustrator 26.3.1, SVG Export Plug-In . SVG Version: 6.00 Build 0)  -->
<svg version="1.1" id="Layer_1" xmlns="http://www.w3.org/2000/svg" xmlns:xlink="http://www.w3.org/1999/xlink" x="0px" y="0px"
	 viewBox="0 0 300 300" style="enable-background:new 0 0 300 300;" xml:space="preserve">
<style type="text/css">
	.st0{fill:#FFFFFF;}
	.st1{fill:#0076C0;}
	.st2{fill:#EF4035;}
</style>
<polygon class="st0" points="226.61,60.85 165.38,122.1 196.93,122.1 226.61,60.85 "/>
<polygon class="st0" points="137.55,149.91 120.26,127.67 159.85,127.67 137.55,149.91 "/>
<path class="st0" d="M167.04,182.87c10.79-9.86,31.61-17.88,54.78-21.97c8.7-1.53,17.15-2.29,25.01-2.33
	c-11.09-1.12-23.21-0.82-36.75,1.56c-13.94,2.46-26.55,6.58-36.75,11.62L167.04,182.87L167.04,182.87z"/>
<path class="st0" d="M193.89,161.66c3.17-0.91,6.46-1.73,9.93-2.47l-8.28-31.13h-6.89l-30.07,48.87l-15.42-19.81h-12.92
	l-81.93,82.04l86.83-62.02l13,16.85h8.55l31.97-53.94L193.89,161.66L193.89,161.66z"/>
<path class="st0" d="M195.92,170.08l5.71,23.91h11.49l-7.24-27.19C202.4,167.81,199.09,168.87,195.92,170.08L195.92,170.08z"/>
</svg>
